HIERARCHY
ROOT Hips
{
	OFFSET 0.000000 1.471914 24.280096
	CHANNELS 6 Xposition Yposition Zposition Xrotation Yrotation Zrotation
	JOINT Spine
	{
		OFFSET 0.000000 0.900110 1.860670
		CHANNELS 6 Xposition Yposition Zposition Xrotation Yrotation Zrotation
		JOINT Spine1
		{
			OFFSET 0.000000 0.400320 2.270309
			CHANNELS 6 Xposition Yposition Zposition Xrotation Yrotation Zrotation
			JOINT Spine2
			{
				OFFSET 0.000000 0.200920 2.296560
				CHANNELS 6 Xposition Yposition Zposition Xrotation Yrotation Zrotation
				JOINT Spine3
				{
					OFFSET 0.000000 0.000000 2.305330
					CHANNELS 6 Xposition Yposition Zposition Xrotation Yrotation Zrotation
					JOINT Neck
					{
						OFFSET 0.000000 -0.864490 6.051487
						CHANNELS 6 Xposition Yposition Zposition Xrotation Yrotation Zrotation
						JOINT Head
						{
							OFFSET 0.000000 -0.550429 3.121674
							CHANNELS 6 Xposition Yposition Zposition Xrotation Yrotation Zrotation
							End Site
							{
								OFFSET 0.000000 0.000000 3.731750
							}
						}
					}
					JOINT RightShoulder
					{
						OFFSET -0.788280 -1.313800 4.256718
						CHANNELS 6 Xposition Yposition Zposition Xrotation Yrotation Zrotation
						JOINT RightArm
						{
							OFFSET -3.915130 0.000000 0.000000
							CHANNELS 6 Xposition Yposition Zposition Xrotation Yrotation Zrotation
							JOINT RightForeArm
							{
								OFFSET -6.914910 0.000000 0.000000
								CHANNELS 6 Xposition Yposition Zposition Xrotation Yrotation Zrotation
								JOINT RightHand
								{
									OFFSET -6.096219 0.000000 0.000000
									CHANNELS 6 Xposition Yposition Zposition Xrotation Yrotation Zrotation
									JOINT RightHandEnd
									{
										OFFSET -1.749950 0.000000 0.000000
										CHANNELS 6 Xposition Yposition Zposition Xrotation Yrotation Zrotation
										End Site
										{
											OFFSET -1.749950 0.000000 0.000000
										}
									}
									JOINT RightHandThumb1
									{
										OFFSET -0.699980 -1.166630 -0.466648
										CHANNELS 6 Xposition Yposition Zposition Xrotation Yrotation Zrotation
										End Site
										{
											OFFSET -1.690319 -0.452920 0.000000
										}
									}
								}
							}
						}
					}
					JOINT LeftShoulder
					{
						OFFSET 0.788280 -1.313800 4.256718
						CHANNELS 6 Xposition Yposition Zposition Xrotation Yrotation Zrotation
						JOINT LeftArm
						{
							OFFSET 3.915130 0.000000 0.000000
							CHANNELS 6 Xposition Yposition Zposition Xrotation Yrotation Zrotation
							JOINT LeftForeArm
							{
								OFFSET 6.914910 0.000000 0.000000
								CHANNELS 6 Xposition Yposition Zposition Xrotation Yrotation Zrotation
								JOINT LeftHand
								{
									OFFSET 6.096219 0.000000 0.000000
									CHANNELS 6 Xposition Yposition Zposition Xrotation Yrotation Zrotation
									JOINT LeftHandEnd
									{
										OFFSET 1.749950 0.000000 0.000000
										CHANNELS 6 Xposition Yposition Zposition Xrotation Yrotation Zrotation
										End Site
										{
											OFFSET 1.749950 0.000000 0.000000
										}
									}
									JOINT LeftHandThumb1
									{
										OFFSET 0.699980 -1.166630 -0.466648
										CHANNELS 6 Xposition Yposition Zposition Xrotation Yrotation Zrotation
										End Site
										{
											OFFSET 1.690319 -0.452920 0.000000
										}
									}
								}
							}
						}
					}
				}
			}
		}
	}
	JOINT RightUpLeg
	{
		OFFSET -2.338570 -0.252550 -0.551512
		CHANNELS 6 Xposition Yposition Zposition Xrotation Yrotation Zrotation
		JOINT RightLeg
		{
			OFFSET 0.000000 0.000000 -10.744959
			CHANNELS 6 Xposition Yposition Zposition Xrotation Yrotation Zrotation
			JOINT RightFoot
			{
				OFFSET 0.000000 -0.000001 -10.930849
				CHANNELS 6 Xposition Yposition Zposition Xrotation Yrotation Zrotation
				JOINT RightToeBase
				{
					OFFSET 0.000000 -4.087269 -1.487650
					CHANNELS 6 Xposition Yposition Zposition Xrotation Yrotation Zrotation
					End Site
					{
						OFFSET 0.000000 -1.891870 0.000000
					}
				}
			}
		}
	}
	JOINT LeftUpLeg
	{
		OFFSET 2.338570 -0.252550 -0.551512
		CHANNELS 6 Xposition Yposition Zposition Xrotation Yrotation Zrotation
		JOINT LeftLeg
		{
			OFFSET 0.000000 0.000000 -10.744959
			CHANNELS 6 Xposition Yposition Zposition Xrotation Yrotation Zrotation
			JOINT LeftFoot
			{
				OFFSET 0.000000 -0.000001 -10.930849
				CHANNELS 6 Xposition Yposition Zposition Xrotation Yrotation Zrotation
				JOINT LeftToeBase
				{
					OFFSET 0.000000 -4.087269 -1.487650
					CHANNELS 6 Xposition Yposition Zposition Xrotation Yrotation Zrotation
					End Site
					{
						OFFSET 0.000000 -1.891870 0.000000
					}
				}
			}
		}
	}
}
MOTION
Frames: 4
Frame Time: 0.041667
0.000006 26.569597 40.303543 30.229031 -1.950724 4.626313 0.000002 0.900090 1.860697 45.047430 -4.355775 -4.146851 -0.000003 0.400317 2.270323 -0.000003 0.000000 -0.000001 0.000011 0.200933 2.296562 0.000001 0.000000 -0.000001 0.000002 0.000002 2.305322 -0.000020 -0.000000 11.325522 0.000001 -0.864459 6.051503 -8.860070 -1.406932 -189.756698 0.000001 -0.550423 3.121681 0.000004 0.000000 0.000001 -0.788275 -1.313767 4.256753 -172.500526 44.242380 -62.942304 -3.915112 -0.000006 0.000004 -0.000001 -0.000001 -0.000001 -6.914896 0.000001 0.000001 0.000015 0.000020 -44.878533 -6.096206 0.000002 -0.000000 0.000008 0.000012 0.000014 -1.749960 0.000014 -0.000006 -0.000003 -0.000000 0.000001 -0.700012 -1.166639 -0.466636 -0.000001 -0.000002 -0.000001 0.788274 -1.313795 4.256738 -141.496303 -39.822974 85.153608 3.915147 -0.000010 0.000007 -0.000004 0.000000 0.000001 6.914894 0.000018 -0.000011 0.000007 -0.000001 69.652992 6.096224 0.000009 0.000004 0.000008 -0.000025 -0.000020 1.749928 0.000012 -0.000004 0.000004 -0.000000 0.000001 0.699969 -1.166612 -0.466668 0.000008 -0.000005 -0.000004 -2.338570 -0.252548 -0.551506 -42.274175 1.949884 3.901123 0.000002 0.000005 -10.744967 42.193009 6.329377 -1.569450 0.000001 0.000009 -10.930865 0.000012 -0.000003 0.000003 0.000007 -4.087267 -1.487647 0.000002 0.000001 0.000003 2.338573 -0.252558 -0.551475 -41.989104 1.309317 3.883206 -0.000003 -0.000007 -10.744937 29.571062 3.255369 -1.488125 -0.000002 0.000014 -10.930849 0.000010 -0.000002 0.000000 0.000003 -4.087249 -1.487653 -0.000002 -0.000000 -0.000000 
0.000009 26.569603 40.303528 32.510239 -2.141016 4.956878 0.000003 0.900091 1.860697 43.503831 -3.939979 -4.358903 -0.000003 0.400314 2.270321 -0.000003 -0.000000 -0.000001 0.000011 0.200931 2.296564 0.000002 0.000000 -0.000001 0.000002 0.000001 2.305318 -0.000020 -0.000000 10.788729 0.000001 -0.864459 6.051496 -9.837458 -1.593550 -190.481887 0.000000 -0.550420 3.121685 -0.000002 0.000001 0.000001 -0.788274 -1.313761 4.256755 -172.302628 43.657241 -63.183580 -3.915117 -0.000001 0.000008 0.000001 -0.000002 -0.000001 -6.914893 -0.000000 0.000001 0.000018 0.000018 -47.044694 -6.096206 0.000001 0.000004 0.000004 0.000009 0.000013 -1.749963 0.000010 -0.000008 0.000001 0.000004 0.000003 -0.700011 -1.166638 -0.466636 -0.000003 -0.000001 -0.000005 0.788273 -1.313795 4.256735 -142.436820 -40.679432 83.954821 3.915145 -0.000008 0.000011 0.000003 0.000001 0.000000 6.914888 0.000012 -0.000011 0.000007 -0.000003 73.853476 6.096224 0.000012 0.000003 0.000009 -0.000022 -0.000020 1.749929 0.000015 0.000001 0.000003 -0.000000 -0.000000 0.699973 -1.166614 -0.466667 0.000003 -0.000002 -0.000006 -2.338570 -0.252551 -0.551510 -45.423739 2.588076 4.462572 0.000002 0.000004 -10.744974 43.662538 5.622443 -1.247498 0.000001 0.000014 -10.930862 0.000014 -0.000003 0.000002 0.000007 -4.087265 -1.487645 0.000003 -0.000001 0.000002 2.338573 -0.252559 -0.551472 -45.154644 1.653391 4.446732 -0.000002 -0.000006 -10.744937 30.994452 3.238124 -1.432234 -0.000002 0.000014 -10.930853 0.000015 -0.000002 0.000000 0.000003 -4.087253 -1.487655 0.000003 -0.000001 -0.000001 
0.000012 26.569590 40.303482 34.989505 -2.394416 5.049629 0.000001 0.900097 1.860695 41.658557 -3.234683 -4.606662 -0.000003 0.400312 2.270327 -0.000004 -0.000000 -0.000001 0.000011 0.200934 2.296562 -0.000000 0.000000 -0.000001 0.000002 -0.000004 2.305322 -0.000021 0.000000 9.898056 -0.000001 -0.864454 6.051503 -10.154791 -2.521112 -190.621892 0.000000 -0.550419 3.121681 0.000006 -0.000001 0.000001 -0.788279 -1.313759 4.256756 -172.476798 43.523533 -62.742835 -3.915120 -0.000001 0.000007 -0.000003 -0.000000 -0.000003 -6.914900 0.000001 -0.000003 0.000014 0.000017 -50.541843 -6.096204 0.000000 0.000003 0.000009 0.000012 0.000016 -1.749959 0.000012 -0.000006 -0.000001 0.000002 0.000002 -0.700007 -1.166639 -0.466633 -0.000003 -0.000000 -0.000003 0.788273 -1.313792 4.256737 -144.288620 -42.350824 82.459296 3.915150 -0.000009 0.000011 0.000004 0.000003 0.000002 6.914891 0.000017 -0.000016 0.000004 0.000001 77.511207 6.096218 0.000011 0.000001 0.000005 -0.000029 -0.000017 1.749930 0.000015 -0.000004 -0.000000 0.000001 -0.000002 0.699972 -1.166614 -0.466661 0.000006 -0.000000 -0.000005 -2.338571 -0.252545 -0.551508 -48.629202 3.229471 5.147527 0.000002 0.000001 -10.744976 44.519194 5.014370 -0.915712 0.000001 0.000008 -10.930862 0.000015 -0.000003 0.000001 0.000007 -4.087268 -1.487643 0.000003 -0.000000 0.000003 2.338573 -0.252549 -0.551470 -48.623632 2.005627 5.153011 -0.000002 -0.000010 -10.744934 32.565116 2.870742 -1.371060 -0.000003 0.000014 -10.930848 0.000012 -0.000002 0.000000 0.000003 -4.087255 -1.487654 -0.000000 -0.000000 -0.000000 
0.000015 26.569586 40.303463 36.419597 -2.255240 4.419091 0.000002 0.900100 1.860698 40.605068 -2.467735 -4.530061 -0.000003 0.400320 2.270325 -0.000002 -0.000000 -0.000001 0.000011 0.200931 2.296566 -0.000000 -0.000000 -0.000001 0.000002 -0.000005 2.305322 -0.000020 0.000000 8.579824 -0.000001 -0.864455 6.051489 -10.286169 -3.509455 -190.822235 0.000001 -0.550415 3.121681 0.000004 0.000000 0.000001 -0.788278 -1.313762 4.256752 -171.418856 43.665396 -63.414563 -3.915118 -0.000004 0.000007 -0.000001 -0.000001 -0.000003 -6.914897 0.000004 0.000004 0.000018 0.000015 -54.787720 -6.096203 0.000002 -0.000001 0.000008 0.000014 0.000013 -1.749962 0.000012 -0.000007 0.000002 0.000002 0.000003 -0.700013 -1.166639 -0.466637 -0.000001 -0.000001 -0.000000 0.788275 -1.313791 4.256733 -146.918530 -44.137294 79.893536 3.915150 -0.000007 0.000011 -0.000002 -0.000001 0.000003 6.914895 0.000014 -0.000011 0.000007 0.000002 79.404699 6.096225 0.000009 0.000007 0.000005 -0.000025 -0.000026 1.749932 0.000015 -0.000007 0.000002 0.000004 -0.000005 0.699976 -1.166611 -0.466667 0.000006 -0.000001 -0.000007 -2.338571 -0.252545 -0.551507 -50.396035 2.961513 5.316988 0.000002 0.000002 -10.744973 44.489588 4.837359 -1.008355 0.000001 0.000013 -10.930866 0.000012 -0.000004 0.000001 0.000007 -4.087265 -1.487643 -0.000000 -0.000000 0.000003 2.338572 -0.252552 -0.551474 -50.396080 1.904183 5.322769 -0.000002 -0.000004 -10.744934 32.947514 2.137924 -1.366482 -0.000003 0.000011 -10.930851 0.000017 -0.000001 0.000001 0.000003 -4.087251 -1.487653 -0.000004 -0.000000 -0.000002 
